# xmcd
#
# Track frame offsets:
#  150
#  42360
#  62883
#  78810
#  92983
#  108084
#  129870
#  143483
#  173402
#  187622
#  216088
#  242989
#  275363
#  311559
#  328497
#
# Disc length: 4699 seconds
#
# Revision: 0
# Processed by: cddbd v1.5.1PL2 Copyright (c) Steve Scherf et al.
# Submitted via: Collectorz.com_Music_Collector 6.11
#
DISCID=c712590f
DTITLE=Lyle Lovett and His Small Band - Paul Masson Historic Mountain Winery, Saratoga, Ca - July 15, 2000 [CD2)
DYEAR=2000
DGENRE=Alt Country
TTITLE0=Her First Mistake
TTITLE1=Private Conversation
TTITLE2=If I Had A Boat
TTITLE3=Cowgirl Paradise
TTITLE4=Lights Of La County
TTITLE5=Nobody Knows Me Like My Baby
TTITLE6=There's More Pretty Girls Than One
TTITLE7=Same Old River
TTITLE8=Love To The Middle
TTITLE9=Good Intentions
TTITLE10=You Can't Resist It
TTITLE11=Church
TTITLE12=North Dakota
TTITLE13=San Antonio Girl
TTITLE14=White Freightliner Blues
EXTD=
EXTT0=
EXTT1=
EXTT2=
EXTT3=
EXTT4=
EXTT5=
EXTT6=
EXTT7=
EXTT8=
EXTT9=
EXTT10=
EXTT11=
EXTT12=
EXTT13=
EXTT14=
PLAYORDER=
